<svg class="diagram-root" style="background: #f5f6f6" xmlns="http://www.w3.org/2000/svg" xmlns:xlink="http://www.w3.org/1999/xlink"><style>.diagram-root { font-family: "Helvetica Neue", sans-serif; font-size: 12px; } .t { overflow: visible; } .t-bg { y: 40; fill: #fff;   } .th { fill: #005aa0;   } .tht { fill: #fff; font-size: 14px;  } .tf { fill: #323c46; overflow: visible; } .tf.pk { fill: #005aa0; font-weight: bold; } .tf.fk { font-weight: bold; } .ty { fill: #adb1b5; font-weight: normal; text-anchor: end; } .r { fill: transparent; stroke: #c3c3c3; stroke-width: 1; } .l { stroke: 1; } .i { fill: #c2c7ce; stroke: #c2c7ce; } .i.ix { fill: #afb3b6; stroke: #000; } .fa { fill: transparent; overflow: visible; } .fa .bg.hover { fill: #f7f7f7; } .c { cy: 12; r: 4; stroke: #d2d2dc; fill: #d2d2dc; } .hr { fill: transparent; stroke: #323c46; stroke-opacity: 0.035; stroke-width: 13; } .dc { stroke: #fa5a3c; fill: #fa5a3c; } .x { stroke: white; stroke-width: 1; } .hl .th { fill: #1b9bff; } .hl .tht {  } .fhl .bg { fill: #e7f4ff; } .fhls .bg {  } .r.hl { stroke: #1b9bff; } .dim { opacity: 0.25; }</style><g class="drawing-wrapper" transform="translate(-261.8888888888889, -189.3333333333331) scale(1,1)"><g class="rs"><path d="M 872.94 665.67 m -1, 0 a 1,1 0 1,0 2,0 a 1,1 0 1,0 -2,0 M 872.94 665.67 m -0.5, 0 a 0.5,0.5 0 1,0 1,0 a 0.5,0.5 0 1,0 -1,0  M872.94 665.67 L872.94 665.67 884.94 665.67 M 872.94 671.67 m -1, 0 a 1,1 0 1,0 2,0 a 1,1 0 1,0 -2,0 M 872.94 671.67 m -0.5, 0 a 0.5,0.5 0 1,0 1,0 a 0.5,0.5 0 1,0 -1,0  M872.94 671.67 L872.94 671.67 879.94 665.67 872.94 659.67 M 872.94 659.67 m -1, 0 a 1,1 0 1,0 2,0 a 1,1 0 1,0 -2,0 M 872.94 659.67 m -0.5, 0 a 0.5,0.5 0 1,0 1,0 a 0.5,0.5 0 1,0 -1,0  M884.94 665.67 Q 948.9 665.67, 1012.86 666 T 1140.78 666.33 M 1152.78 666.33 m -1, 0 a 1,1 0 1,0 2,0 a 1,1 0 1,0 -2,0 M 1152.78 666.33 m -0.5, 0 a 0.5,0.5 0 1,0 1,0 a 0.5,0.5 0 1,0 -1,0  M1152.78 666.33 L1152.78 666.33 1140.78 666.33 M1146.78 672.33 L1146.78 672.33 1146.78 660.33" id="h1537058300" class="r"></path><path d="M 452.39 478.44 m -1, 0 a 1,1 0 1,0 2,0 a 1,1 0 1,0 -2,0 M 452.39 478.44 m -0.5, 0 a 0.5,0.5 0 1,0 1,0 a 0.5,0.5 0 1,0 -1,0  M452.39 478.44 L452.39 478.44 464.39 478.44 M 452.39 484.44 m -1, 0 a 1,1 0 1,0 2,0 a 1,1 0 1,0 -2,0 M 452.39 484.44 m -0.5, 0 a 0.5,0.5 0 1,0 1,0 a 0.5,0.5 0 1,0 -1,0  M452.39 484.44 L452.39 484.44 459.39 478.44 452.39 472.44 M 452.39 472.44 m -1, 0 a 1,1 0 1,0 2,0 a 1,1 0 1,0 -2,0 M 452.39 472.44 m -0.5, 0 a 0.5,0.5 0 1,0 1,0 a 0.5,0.5 0 1,0 -1,0  M464.39 478.44 Q 516.54 478.44, 568.69 389.94 T 673 301.44 M 685 301.44 m -1, 0 a 1,1 0 1,0 2,0 a 1,1 0 1,0 -2,0 M 685 301.44 m -0.5, 0 a 0.5,0.5 0 1,0 1,0 a 0.5,0.5 0 1,0 -1,0  M685 301.44 L685 301.44 673 301.44 M679 307.44 L679 307.44 679 295.44" id="h1397587031" class="r"></path><path d="M 452.39 503.44 m -1, 0 a 1,1 0 1,0 2,0 a 1,1 0 1,0 -2,0 M 452.39 503.44 m -0.5, 0 a 0.5,0.5 0 1,0 1,0 a 0.5,0.5 0 1,0 -1,0  M452.39 503.44 L452.39 503.44 464.39 503.44 M 452.39 509.44 m -1, 0 a 1,1 0 1,0 2,0 a 1,1 0 1,0 -2,0 M 452.39 509.44 m -0.5, 0 a 0.5,0.5 0 1,0 1,0 a 0.5,0.5 0 1,0 -1,0  M452.39 509.44 L452.39 509.44 459.39 503.44 452.39 497.44 M 452.39 497.44 m -1, 0 a 1,1 0 1,0 2,0 a 1,1 0 1,0 -2,0 M 452.39 497.44 m -0.5, 0 a 0.5,0.5 0 1,0 1,0 a 0.5,0.5 0 1,0 -1,0  M464.39 503.44 Q 516.07 503.44, 567.75 572.05 T 671.11 640.67 M 683.11 640.67 m -1, 0 a 1,1 0 1,0 2,0 a 1,1 0 1,0 -2,0 M 683.11 640.67 m -0.5, 0 a 0.5,0.5 0 1,0 1,0 a 0.5,0.5 0 1,0 -1,0  M683.11 640.67 L683.11 640.67 671.11 640.67 M677.11 646.67 L677.11 646.67 677.11 634.67" id="h2286254435" class="r"></path><path d="M 1166.33 816.33 m -1, 0 a 1,1 0 1,0 2,0 a 1,1 0 1,0 -2,0 M 1166.33 816.33 m -0.5, 0 a 0.5,0.5 0 1,0 1,0 a 0.5,0.5 0 1,0 -1,0  M1166.33 816.33 L1166.33 816.33 1154.33 816.33 M 1166.33 822.33 m -1, 0 a 1,1 0 1,0 2,0 a 1,1 0 1,0 -2,0 M 1166.33 822.33 m -0.5, 0 a 0.5,0.5 0 1,0 1,0 a 0.5,0.5 0 1,0 -1,0  M1166.33 822.33 L1166.33 822.33 1159.33 816.33 1166.33 810.33 M 1166.33 810.33 m -1, 0 a 1,1 0 1,0 2,0 a 1,1 0 1,0 -2,0 M 1166.33 810.33 m -0.5, 0 a 0.5,0.5 0 1,0 1,0 a 0.5,0.5 0 1,0 -1,0  M1154.33 816.33 Q 1086.98 816.33, 1019.64 728.5 T 884.94 640.67 M 872.94 640.67 m -1, 0 a 1,1 0 1,0 2,0 a 1,1 0 1,0 -2,0 M 872.94 640.67 m -0.5, 0 a 0.5,0.5 0 1,0 1,0 a 0.5,0.5 0 1,0 -1,0  M872.94 640.67 L872.94 640.67 884.94 640.67 M878.94 646.67 L878.94 646.67 878.94 634.67" id="h3177548053" class="r"></path><path d="M 1148.67 276.33000000000004 m -1, 0 a 1,1 0 1,0 2,0 a 1,1 0 1,0 -2,0 M 1148.67 276.33000000000004 m -0.5, 0 a 0.5,0.5 0 1,0 1,0 a 0.5,0.5 0 1,0 -1,0  M1148.67 276.33000000000004 L1148.67 276.33000000000004 1136.67 276.33000000000004 M 1148.67 282.33000000000004 m -1, 0 a 1,1 0 1,0 2,0 a 1,1 0 1,0 -2,0 M 1148.67 282.33000000000004 m -0.5, 0 a 0.5,0.5 0 1,0 1,0 a 0.5,0.5 0 1,0 -1,0  M1148.67 282.33000000000004 L1148.67 282.33000000000004 1141.67 276.33000000000004 1148.67 270.33000000000004 M 1148.67 270.33000000000004 m -1, 0 a 1,1 0 1,0 2,0 a 1,1 0 1,0 -2,0 M 1148.67 270.33000000000004 m -0.5, 0 a 0.5,0.5 0 1,0 1,0 a 0.5,0.5 0 1,0 -1,0  M1136.67 276.33000000000004 Q 1073.74 276.33000000000004, 1010.81 458.5 T 884.94 640.67 M 872.94 640.67 m -1, 0 a 1,1 0 1,0 2,0 a 1,1 0 1,0 -2,0 M 872.94 640.67 m -0.5, 0 a 0.5,0.5 0 1,0 1,0 a 0.5,0.5 0 1,0 -1,0  M872.94 640.67 L872.94 640.67 884.94 640.67 M878.94 646.67 L878.94 646.67 878.94 634.67" id="h1139284389" class="r"></path><path d="M 1148.67 301.33000000000004 m -1, 0 a 1,1 0 1,0 2,0 a 1,1 0 1,0 -2,0 M 1148.67 301.33000000000004 m -0.5, 0 a 0.5,0.5 0 1,0 1,0 a 0.5,0.5 0 1,0 -1,0  M1148.67 301.33000000000004 L1148.67 301.33000000000004 1136.67 301.33000000000004 M 1148.67 307.33000000000004 m -1, 0 a 1,1 0 1,0 2,0 a 1,1 0 1,0 -2,0 M 1148.67 307.33000000000004 m -0.5, 0 a 0.5,0.5 0 1,0 1,0 a 0.5,0.5 0 1,0 -1,0  M1148.67 307.33000000000004 L1148.67 307.33000000000004 1141.67 301.33000000000004 1148.67 295.33000000000004 M 1148.67 295.33000000000004 m -1, 0 a 1,1 0 1,0 2,0 a 1,1 0 1,0 -2,0 M 1148.67 295.33000000000004 m -0.5, 0 a 0.5,0.5 0 1,0 1,0 a 0.5,0.5 0 1,0 -1,0  M1136.67 301.33000000000004 Q 1073.88 301.33000000000004, 1011.09 301.39 T 885.5 301.44 M 873.5 301.44 m -1, 0 a 1,1 0 1,0 2,0 a 1,1 0 1,0 -2,0 M 873.5 301.44 m -0.5, 0 a 0.5,0.5 0 1,0 1,0 a 0.5,0.5 0 1,0 -1,0  M873.5 301.44 L873.5 301.44 885.5 301.44 M879.5 307.44 L879.5 307.44 879.5 295.44" id="h1607168654" class="r"></path></g><g class="hrs"></g><g class="ts"><svg width="179.81" height="100" x="1152.78" y="609.33" id="h311790747" class="t"><rect height="40" width="179.81" class="th"></rect><text x="13" y="25" class="tht">titles</text><rect height="60" width="179.81" class="t-bg"></rect><text x="13" y="61" class="tf pk">title_id<tspan x="166.81" class="ty">VARCHAR(10)</tspan></text><path d="M7,14A2,2 0 0,1 5,12A2,2 0 0,1 7,10A2,2 0 0,1 9,12A2,2 0 0,1 7,14M12.65,10C11.83,7.67 9.61,6 7, 6A6, 6 0 0, 0 1, 12A6, 6 0 0, 0 7, 18C9.61, 18 11.83, 16.33 12.65, 14H17V18H21V14H23V10H12.65Z" class="i pk" transform="translate(67.685, 48) scale(0.65)"></path><text x="13" y="86" class="tf">title<tspan x="166.81" class="ty">VARCHAR(30)</tspan></text></svg><svg width="188.5" height="100" x="685" y="244.44" id="h475896179" class="t"><rect height="40" width="188.5" class="th"></rect><text x="13" y="25" class="tht">departments</text><rect height="60" width="188.5" class="t-bg"></rect><text x="13" y="61" class="tf pk">dept_no<tspan x="175.5" class="ty">VARCHAR(10)</tspan></text><path d="M7,14A2,2 0 0,1 5,12A2,2 0 0,1 7,10A2,2 0 0,1 9,12A2,2 0 0,1 7,14M12.65,10C11.83,7.67 9.61,6 7, 6A6, 6 0 0, 0 1, 12A6, 6 0 0, 0 7, 18C9.61, 18 11.83, 16.33 12.65, 14H17V18H21V14H23V10H12.65Z" class="i pk" transform="translate(76.375, 48) scale(0.65)"></path><text x="13" y="86" class="tf">dept_name<tspan x="175.5" class="ty">VARCHAR(30)</tspan></text></svg><svg width="189.83" height="225" x="683.11" y="583.67" id="h1639608377" class="t"><rect height="40" width="189.83" class="th"></rect><text x="13" y="25" class="tht">employees</text><rect height="185" width="189.83" class="t-bg"></rect><text x="13" y="61" class="tf pk">emp_no<tspan x="176.83" class="ty">INTEGER</tspan></text><path d="M7,14A2,2 0 0,1 5,12A2,2 0 0,1 7,10A2,2 0 0,1 9,12A2,2 0 0,1 7,14M12.65,10C11.83,7.67 9.61,6 7, 6A6, 6 0 0, 0 1, 12A6, 6 0 0, 0 7, 18C9.61, 18 11.83, 16.33 12.65, 14H17V18H21V14H23V10H12.65Z" class="i pk" transform="translate(103.49210937500001, 48) scale(0.65)"></path><text x="13" y="86" class="tf fk">emp_title_id<tspan x="176.83" class="ty">VARCHAR(10)</tspan></text><text x="13" y="111" class="tf">birth_date<tspan x="176.83" class="ty">DATE</tspan></text><text x="13" y="136" class="tf">first_name<tspan x="176.83" class="ty">VARCHAR(30)</tspan></text><text x="13" y="161" class="tf">last_name<tspan x="176.83" class="ty">VARCHAR(30)</tspan></text><text x="13" y="186" class="tf">sex<tspan x="176.83" class="ty">VARCHAR(1)</tspan></text><text x="13" y="211" class="tf">hire_date<tspan x="176.83" class="ty">DATE</tspan></text></svg><svg width="168.5" height="100" x="283.89" y="421.44" id="h1676682957" class="t"><rect height="40" width="168.5" class="th"></rect><text x="13" y="25" class="tht">dept_manager</text><rect height="60" width="168.5" class="t-bg"></rect><text x="13" y="61" class="tf fk">dept_no<tspan x="155.5" class="ty">VARCHAR(10)</tspan></text><text x="13" y="86" class="tf fk">emp_no<tspan x="155.5" class="ty">INTEGER</tspan></text></svg><svg width="142.7" height="100" x="1166.33" y="759.33" id="h2472833127" class="t"><rect height="40" width="142.7" class="th"></rect><text x="13" y="25" class="tht">salaries</text><rect height="60" width="142.7" class="t-bg"></rect><text x="13" y="61" class="tf fk">emp_no<tspan x="129.7" class="ty">INTEGER</tspan></text><text x="13" y="86" class="tf">salary<tspan x="129.7" class="ty">INTEGER</tspan></text></svg><svg width="168.5" height="100" x="1148.67" y="219.33" id="h1090417462" class="t"><rect height="40" width="168.5" class="th"></rect><text x="13" y="25" class="tht">dept_emp</text><rect height="60" width="168.5" class="t-bg"></rect><text x="13" y="61" class="tf fk">emp_no<tspan x="155.5" class="ty">INTEGER</tspan></text><text x="13" y="86" class="tf fk">dept_no<tspan x="155.5" class="ty">VARCHAR(10)</tspan></text></svg></g></g><text class="qdbd-link" x="10" y="20">www.quickdatabasediagrams.com</text></svg>